<svg width="72" height="72" viewBox="0 0 72 72" fill="none" xmlns="http://www.w3.org/2000/svg">
<path d="M39.3126 51.4093L39.3126 26.9189C39.3162 23.3771 40.7248 19.9815 43.2292 17.4771C45.7336 14.9727 49.1292 13.5641 52.671 13.5605C53.2614 13.5605 53.8277 13.795 54.2453 14.2126C54.6628 14.6301 54.8974 15.1964 54.8974 15.7869C54.8974 16.3773 54.6628 16.9436 54.2453 17.3612C53.8277 17.7787 53.2614 18.0133 52.671 18.0133C50.309 18.0133 48.0439 18.9515 46.3737 20.6216C44.7036 22.2918 43.7654 24.5569 43.7654 26.9189L43.7654 29.1453L60.4634 29.1453C61.6443 29.1453 62.7769 29.6144 63.612 30.4495C64.447 31.2845 64.9162 32.4171 64.9162 33.5981L64.9162 51.4093C64.9162 52.5902 64.447 53.7228 63.612 54.5579C62.7769 55.3929 61.6443 55.8621 60.4634 55.8621L43.7654 55.8621C42.5844 55.8621 41.4518 55.3929 40.6167 54.5579C39.7817 53.7228 39.3126 52.5902 39.3126 51.4093ZM11.4826 55.8621L28.1805 55.8621C29.3615 55.8621 30.4941 55.3929 31.3292 54.5579C32.1642 53.7228 32.6334 52.5902 32.6334 51.4093L32.6334 33.5981C32.6334 32.4171 32.1642 31.2845 31.3292 30.4495C30.4941 29.6144 29.3615 29.1453 28.1806 29.1453L11.4826 29.1453L11.4826 26.9189C11.4826 24.5569 12.4208 22.2918 14.0909 20.6216C15.7611 18.9515 18.0262 18.0133 20.3882 18.0133C20.9786 18.0133 21.5449 17.7787 21.9625 17.3612C22.38 16.9436 22.6146 16.3773 22.6146 15.7869C22.6146 15.1964 22.38 14.6301 21.9625 14.2126C21.5449 13.795 20.9786 13.5605 20.3882 13.5605C16.8464 13.5641 13.4508 14.9727 10.9464 17.4771C8.44202 19.9815 7.03343 23.3771 7.02975 26.9189L7.02975 51.4093C7.02975 52.5902 7.49888 53.7228 8.33395 54.5579C9.16901 55.3929 10.3016 55.8621 11.4826 55.8621Z" fill="black" fill-opacity="0.1"/>
</svg>
